<?xml version="1.0" encoding="UTF-8"?>
<svg id="_레이어_1" data-name="레이어 1" xmlns="http://www.w3.org/2000/svg" viewBox="0 0 64 64">
  <defs>
    <style>
      .cls-1 {
        fill: #fff;
      }

      .cls-2 {
        fill: #0e207f;
      }
    </style>
  </defs>
  <rect class="cls-1" x="8.19" width="47.61" height="64"/>
  <g>
    <path class="cls-2" d="m8.19,0v64h47.61V0H8.19Zm24.11,21.18h-5.52l-5.26-8.71-5.26,8.71h-5.52l8.56-13.99v-3.58h4.43v3.58l8.57,13.99Zm-4.32,7.59v3.91h-4.32v7.09h-4.32v-16.82h4.32v5.82h4.32Zm-6.47,12.89c4.18,0,6.5,2.69,6.5,2.69,2.87,2.87,2.68,6.47,2.68,6.47,0,4.02-2.69,6.5-2.69,6.5-2.84,2.84-6.49,2.69-6.49,2.69-4.11,0-6.47-2.68-6.47-2.68-2.95-2.95-2.69-6.5-2.69-6.5,0-4.16,2.69-6.47,2.69-6.47,2.98-2.98,6.47-2.69,6.47-2.69Zm14.56-5.47v-3.91h4.32v-2.13h-4.32v-3.91h4.32v-3.28h4.32v16.82h-4.32v-3.58h-4.32Zm-1.7-15.23V4.43h16.41v16.53h-16.41Zm1.68,23.39c2.98-2.98,6.47-2.69,6.47-2.69,4.18,0,6.5,2.69,6.5,2.69,2.87,2.87,2.68,6.47,2.68,6.47,0,4.02-2.69,6.5-2.69,6.5-2.84,2.84-6.49,2.69-6.49,2.69-4.11,0-6.47-2.68-6.47-2.68-2.95-2.95-2.69-6.5-2.69-6.5,0-4.16,2.69-6.47,2.69-6.47Z"/>
    <path class="cls-2" d="m42.52,55.63s1.92.08,3.4-1.4c0,0,1.4-1.29,1.4-3.41,0,0,.02-1.96-1.4-3.38,0,0-1.23-1.41-3.4-1.41,0,0-1.82-.21-3.39,1.41,0,0-1.4,1.24-1.4,3.38,0,0-.14,1.87,1.41,3.41,0,0,1.24,1.39,3.38,1.39Z"/>
    <rect class="cls-2" x="38.73" y="8.34" width="7.78" height="8.71"/>
    <path class="cls-2" d="m21.51,55.63s1.92.08,3.4-1.4c0,0,1.4-1.29,1.4-3.41,0,0,.02-1.96-1.4-3.38,0,0-1.23-1.41-3.4-1.41,0,0-1.82-.21-3.39,1.41,0,0-1.4,1.24-1.4,3.38,0,0-.13,1.87,1.41,3.41,0,0,1.24,1.39,3.38,1.39Z"/>
  </g>
</svg>